<svg width="223" height="48" viewBox="0 0 223 48" fill="none" xmlns="http://www.w3.org/2000/svg">
<path d="M38.872 44.144C38.648 44.144 38.456 44.048 38.296 43.856C38.168 43.664 38.104 43.44 38.104 43.184C38.136 42.768 38.216 42.528 38.344 42.464C38.504 42.368 38.792 42.32 39.208 42.32C40.04 42.32 40.632 42.176 40.984 41.888C41.336 41.6 41.544 41.264 41.608 40.88C41.672 40.496 41.704 39.888 41.704 39.056V15.632C41.704 14.8 41.672 14.192 41.608 13.808C41.576 13.424 41.384 13.088 41.032 12.8C40.68 12.512 40.088 12.368 39.256 12.368C38.872 12.368 38.584 12.32 38.392 12.224C38.2 12.096 38.104 11.824 38.104 11.408C38.104 11.216 38.168 11.04 38.296 10.88C38.424 10.688 38.616 10.576 38.872 10.544C40.888 10.256 42.616 9.84 44.056 9.296C44.504 9.136 44.872 9.04 45.16 9.008H45.304C45.816 9.008 46.072 9.312 46.072 9.92V39.056C46.072 39.888 46.104 40.496 46.168 40.88C46.232 41.264 46.44 41.6 46.792 41.888C47.144 42.176 47.736 42.32 48.568 42.32H48.856C49.112 42.32 49.304 42.368 49.432 42.464C49.56 42.56 49.64 42.8 49.672 43.184C49.672 43.44 49.608 43.664 49.48 43.856C49.352 44.048 49.16 44.144 48.904 44.144C47.048 44.048 45.368 44 43.864 44C42.424 44 40.76 44.048 38.872 44.144ZM63.6063 44.576C61.2063 44.576 59.1583 44.064 57.4622 43.04C55.7983 42.016 54.5343 40.624 53.6703 38.864C52.8063 37.104 52.3743 35.152 52.3743 33.008C52.3743 31.12 52.8063 29.312 53.6703 27.584C54.5663 25.824 55.8303 24.4 57.4622 23.312C59.0943 22.224 60.9663 21.68 63.0782 21.68C65.9263 21.68 68.1183 22.416 69.6543 23.888C71.1903 25.328 72.0703 27.28 72.2943 29.744C72.2943 30.8 72.0063 31.52 71.4303 31.904C70.8543 32.288 70.0223 32.48 68.9343 32.48H57.2703C57.2703 35.456 57.8783 37.824 59.0943 39.584C60.3423 41.312 62.2623 42.176 64.8543 42.176C66.2303 42.176 67.3983 41.888 68.3583 41.312C69.3183 40.704 70.2303 39.696 71.0943 38.288C71.2543 38.128 71.4143 38.048 71.5743 38.048C71.7983 38.048 71.9903 38.112 72.1503 38.24C72.4703 38.432 72.6303 38.72 72.6303 39.104C72.6303 39.296 72.5983 39.44 72.5343 39.536C71.5423 41.136 70.2783 42.384 68.7423 43.28C67.2383 44.144 65.5263 44.576 63.6063 44.576ZM65.0943 30.656C66.7263 30.656 67.5903 29.984 67.6863 28.64C67.6863 27.168 67.2863 25.92 66.4863 24.896C65.6863 23.872 64.5503 23.36 63.0782 23.36C61.4463 23.36 60.1023 24.016 59.0463 25.328C57.9903 26.608 57.3983 28.384 57.2703 30.656H65.0943ZM74.8641 44.144C74.6401 44.144 74.4641 44.048 74.3361 43.856C74.2081 43.632 74.1441 43.408 74.1441 43.184C74.1761 42.8 74.2561 42.56 74.3841 42.464C74.5121 42.368 74.7041 42.32 74.9601 42.32C75.6641 42.32 76.2401 42.224 76.6881 42.032C77.1361 41.84 77.5201 41.584 77.8401 41.264C78.1601 40.944 78.6721 40.352 79.3761 39.488C80.1761 38.592 81.7921 36.64 84.2241 33.632L78.7521 25.904C78.3361 25.36 77.8881 24.944 77.4081 24.656C76.9601 24.336 76.4001 24.112 75.7281 23.984C75.6321 23.952 75.4561 23.92 75.2001 23.888C74.9441 23.856 74.7841 23.776 74.7201 23.648C74.6561 23.52 74.6241 23.296 74.6241 22.976C74.6241 22.592 74.7201 22.352 74.9121 22.256C75.1361 22.16 75.3921 22.112 75.6801 22.112C76.0001 22.08 76.2081 22.064 76.3041 22.064C79.5681 21.904 81.9361 22.8 83.4081 24.752L84.3201 26.096C85.1521 27.504 86.0641 28.864 87.0561 30.176L90.2721 26C90.8161 25.264 91.0881 24.752 91.0881 24.464C91.0881 24.272 90.9441 24.144 90.6561 24.08C90.3681 24.016 89.8401 23.968 89.0721 23.936H88.7841C88.5281 23.936 88.3361 23.888 88.2081 23.792C88.1121 23.696 88.0481 23.456 88.0161 23.072C88.0161 22.848 88.0641 22.64 88.1601 22.448C88.2881 22.224 88.4641 22.112 88.6881 22.112C90.5121 22.208 91.8561 22.256 92.7201 22.256C93.6161 22.256 94.9921 22.208 96.8481 22.112C97.0721 22.112 97.2481 22.224 97.3761 22.448C97.5041 22.64 97.5681 22.848 97.5681 23.072C97.5361 23.424 97.4561 23.648 97.3281 23.744C97.2001 23.84 97.0401 23.904 96.8481 23.936C96.6881 23.936 96.5761 23.936 96.5121 23.936C95.5841 23.968 94.8801 24.16 94.4001 24.512C93.9521 24.832 93.2641 25.584 92.3361 26.768C92.0161 27.12 91.5041 27.76 90.8001 28.688C89.5521 30.256 88.7201 31.296 88.3041 31.808C90.9281 35.2 92.8801 37.76 94.1601 39.488C94.7681 40.352 95.3761 41.04 95.9841 41.552C96.5921 42.064 97.2641 42.32 98.0001 42.32H98.2881C98.5441 42.32 98.7361 42.368 98.8641 42.464C98.9921 42.56 99.0721 42.8 99.1041 43.184C99.1041 43.44 99.0241 43.664 98.8641 43.856C98.7361 44.048 98.5601 44.144 98.3361 44.144C96.4481 44.048 94.9121 44 93.7281 44C92.2241 44 90.5281 44.048 88.6401 44.144C88.4161 44.144 88.2241 44.048 88.0641 43.856C87.9361 43.664 87.8721 43.44 87.8721 43.184C87.9041 42.768 87.9841 42.528 88.1121 42.464C88.2721 42.368 88.5601 42.32 88.9761 42.32C89.6481 42.32 89.9841 42.096 89.9841 41.648C89.9841 41.328 89.7601 40.864 89.3121 40.256L85.5681 35.264L81.4401 40.256C80.8961 40.96 80.6241 41.44 80.6241 41.696C80.6241 41.92 80.7841 42.08 81.1041 42.176C81.4241 42.272 81.9361 42.32 82.6401 42.32H82.9281C83.1841 42.32 83.3601 42.368 83.4561 42.464C83.5841 42.56 83.6641 42.8 83.6961 43.184C83.6961 43.408 83.6321 43.632 83.5041 43.856C83.4081 44.048 83.2481 44.144 83.0241 44.144C81.2001 44.048 79.8561 44 78.9921 44C78.1281 44 76.7521 44.048 74.8641 44.144ZM101.649 44.144C101.425 44.144 101.233 44.048 101.073 43.856C100.945 43.664 100.881 43.44 100.881 43.184C100.913 42.768 101.009 42.528 101.169 42.464C101.329 42.368 101.617 42.32 102.033 42.32C102.865 42.32 103.457 42.176 103.809 41.888C104.161 41.6 104.353 41.264 104.385 40.88C104.449 40.496 104.481 39.888 104.481 39.056V28.064C104.481 27.232 104.449 26.624 104.385 26.24C104.353 25.856 104.161 25.52 103.809 25.232C103.457 24.944 102.865 24.8 102.033 24.8C101.649 24.8 101.361 24.752 101.169 24.656C100.977 24.528 100.881 24.256 100.881 23.84C100.881 23.648 100.945 23.472 101.073 23.312C101.201 23.12 101.393 23.008 101.649 22.976C103.729 22.656 105.441 22.24 106.785 21.728C107.329 21.568 107.697 21.472 107.889 21.44H108.033C108.545 21.44 108.801 21.744 108.801 22.352V25.328H108.945C110.065 24.208 111.201 23.328 112.353 22.688C113.505 22.016 114.545 21.68 115.473 21.68C116.529 21.68 117.361 22.08 117.969 22.88C118.609 23.648 118.929 24.544 118.929 25.568C118.929 26.464 118.657 27.264 118.113 27.968C117.569 28.672 116.817 29.024 115.857 29.024C115.409 29.024 115.009 28.928 114.657 28.736C114.337 28.544 114.161 28.384 114.129 28.256C114.161 28.192 114.321 28 114.609 27.68C114.897 27.328 115.041 26.928 115.041 26.48C115.041 25.904 114.881 25.44 114.561 25.088C114.273 24.736 113.873 24.56 113.361 24.56C112.817 24.56 112.129 24.832 111.297 25.376C110.465 25.888 109.649 26.544 108.849 27.344V39.056C108.849 39.888 108.881 40.496 108.945 40.88C109.009 41.264 109.217 41.6 109.569 41.888C109.921 42.176 110.513 42.32 111.345 42.32H111.633C111.889 42.32 112.081 42.368 112.209 42.464C112.337 42.56 112.417 42.8 112.449 43.184C112.449 43.44 112.385 43.664 112.257 43.856C112.129 44.048 111.937 44.144 111.681 44.144C109.825 44.048 108.145 44 106.641 44C105.201 44 103.537 44.048 101.649 44.144ZM132.652 44.576C130.476 44.576 128.54 44.064 126.844 43.04C125.148 41.984 123.82 40.608 122.86 38.912C121.932 37.184 121.468 35.36 121.468 33.44C121.468 31.04 122.028 28.96 123.148 27.2C124.268 25.408 125.692 24.048 127.42 23.12C129.148 22.16 130.892 21.68 132.652 21.68C134.828 21.68 136.764 22.208 138.46 23.264C140.156 24.288 141.468 25.664 142.396 27.392C143.356 29.088 143.836 30.896 143.836 32.816C143.836 35.216 143.26 37.312 142.108 39.104C140.988 40.864 139.564 42.224 137.836 43.184C136.108 44.112 134.38 44.576 132.652 44.576ZM132.652 42.8C134.828 42.8 136.412 41.872 137.404 40.016C138.428 38.16 138.94 35.76 138.94 32.816C138.94 30.064 138.412 27.824 137.356 26.096C136.332 24.336 134.764 23.456 132.652 23.456C130.444 23.456 128.844 24.368 127.852 26.192C126.86 28.016 126.364 30.4 126.364 33.344C126.364 36.096 126.876 38.368 127.9 40.16C128.924 41.92 130.508 42.8 132.652 42.8ZM158.949 44.576C156.773 44.576 154.837 44.064 153.141 43.04C151.445 41.984 150.117 40.608 149.157 38.912C148.229 37.184 147.765 35.36 147.765 33.44C147.765 31.04 148.325 28.96 149.445 27.2C150.565 25.408 151.989 24.048 153.717 23.12C155.445 22.16 157.189 21.68 158.949 21.68C161.125 21.68 163.061 22.208 164.757 23.264C166.453 24.288 167.765 25.664 168.693 27.392C169.653 29.088 170.133 30.896 170.133 32.816C170.133 35.216 169.557 37.312 168.405 39.104C167.285 40.864 165.861 42.224 164.133 43.184C162.405 44.112 160.677 44.576 158.949 44.576ZM158.949 42.8C161.125 42.8 162.709 41.872 163.701 40.016C164.725 38.16 165.237 35.76 165.237 32.816C165.237 30.064 164.709 27.824 163.653 26.096C162.629 24.336 161.061 23.456 158.949 23.456C156.741 23.456 155.141 24.368 154.149 26.192C153.157 28.016 152.661 30.4 152.661 33.344C152.661 36.096 153.173 38.368 154.197 40.16C155.221 41.92 156.805 42.8 158.949 42.8ZM174.213 44.144C173.989 44.144 173.797 44.048 173.637 43.856C173.509 43.664 173.445 43.44 173.445 43.184C173.477 42.768 173.557 42.528 173.685 42.464C173.845 42.368 174.133 42.32 174.549 42.32C175.381 42.32 175.973 42.176 176.325 41.888C176.677 41.6 176.885 41.264 176.949 40.88C177.013 40.496 177.045 39.888 177.045 39.056V28.064C177.045 27.232 177.013 26.624 176.949 26.24C176.917 25.856 176.725 25.52 176.373 25.232C176.021 24.944 175.429 24.8 174.597 24.8C174.213 24.8 173.925 24.752 173.733 24.656C173.541 24.528 173.445 24.256 173.445 23.84C173.445 23.648 173.509 23.472 173.637 23.312C173.765 23.12 173.957 23.008 174.213 22.976C176.293 22.656 178.005 22.24 179.349 21.728C179.893 21.568 180.261 21.472 180.453 21.44H180.597C181.109 21.44 181.365 21.744 181.365 22.352V25.376H181.509C181.701 25.184 182.181 24.72 182.949 23.984C183.717 23.216 184.581 22.64 185.541 22.256C186.533 21.872 187.653 21.68 188.901 21.68C190.437 21.68 191.765 22.016 192.885 22.688C194.005 23.328 194.837 24.224 195.381 25.376H195.477C196.725 24.192 197.909 23.28 199.029 22.64C200.181 22 201.653 21.68 203.445 21.68C205.621 21.68 207.349 22.336 208.629 23.648C209.909 24.96 210.549 26.688 210.549 28.832V39.056C210.549 39.888 210.581 40.496 210.645 40.88C210.709 41.264 210.917 41.6 211.269 41.888C211.621 42.176 212.213 42.32 213.045 42.32H213.333C213.589 42.32 213.781 42.368 213.909 42.464C214.037 42.56 214.117 42.8 214.149 43.184C214.149 43.44 214.069 43.664 213.909 43.856C213.781 44.048 213.605 44.144 213.381 44.144C211.525 44.048 209.845 44 208.341 44C206.901 44 205.237 44.048 203.349 44.144C203.093 44.144 202.901 44.048 202.773 43.856C202.645 43.664 202.581 43.44 202.581 43.184C202.613 42.768 202.693 42.528 202.821 42.464C202.981 42.368 203.269 42.32 203.685 42.32C204.517 42.32 205.109 42.176 205.461 41.888C205.813 41.6 206.021 41.264 206.085 40.88C206.149 40.496 206.181 39.888 206.181 39.056V28.88C206.181 27.408 205.717 26.288 204.789 25.52C203.861 24.72 202.789 24.32 201.573 24.32C200.101 24.32 198.901 24.672 197.973 25.376C197.045 26.08 196.389 26.832 196.005 27.632V39.056C196.005 39.248 195.989 39.68 195.957 40.352C195.957 41.024 196.133 41.52 196.484 41.84C196.869 42.16 197.477 42.32 198.309 42.32H198.597C198.885 42.32 199.077 42.368 199.173 42.464C199.301 42.56 199.381 42.8 199.413 43.184C199.413 43.44 199.349 43.664 199.221 43.856C199.093 44.048 198.901 44.144 198.645 44.144C196.757 44.048 195.125 44 193.749 44C192.437 44 190.837 44.048 188.949 44.144C188.693 44.144 188.501 44.048 188.373 43.856C188.245 43.664 188.181 43.44 188.181 43.184C188.213 42.768 188.293 42.528 188.421 42.464C188.581 42.368 188.869 42.32 189.285 42.32C190.341 42.32 190.997 42.112 191.253 41.696C191.509 41.248 191.621 40.752 191.589 40.208C191.589 39.632 191.589 39.248 191.589 39.056V28.88C191.589 27.408 191.125 26.288 190.197 25.52C189.301 24.72 188.245 24.32 187.029 24.32C185.557 24.32 184.357 24.672 183.429 25.376C182.501 26.08 181.829 26.832 181.413 27.632V39.056C181.413 39.888 181.445 40.496 181.509 40.88C181.573 41.264 181.781 41.6 182.133 41.888C182.485 42.176 183.077 42.32 183.909 42.32H184.197C184.453 42.32 184.645 42.368 184.773 42.464C184.901 42.56 184.981 42.8 185.013 43.184C185.013 43.44 184.949 43.664 184.821 43.856C184.693 44.048 184.501 44.144 184.245 44.144C182.389 44.048 180.709 44 179.205 44C177.765 44 176.101 44.048 174.213 44.144Z" fill="#333333"/>
<rect width="9.94286" height="11.1111" transform="matrix(1 0 0 -1 10.219 38.8333)" fill="#7E57C2"/>
<rect width="9.94286" height="11.9444" transform="matrix(1 0 0 -1 0 38.8333)" fill="#311B92"/>
<rect width="9.94286" height="11.9444" transform="matrix(1 0 0 -1 0 26.8889)" fill="#311B92"/>
<path d="M0 14.9445H9.94286V3.00002L0 14.9445Z" fill="#311B92"/>
<path d="M10.219 38.8333H20.1619L10.219 48V38.8333Z" fill="#7E57C2"/>
<path d="M9.94287 38.8333H1.43051e-05L9.94287 48V38.8333Z" fill="#311B92"/>
<path d="M19.3333 17.4445L10.219 27.4445H29L19.3333 17.4445Z" fill="#311B92"/>
</svg>
